<?xml version="1.0" encoding="UTF-8" standalone="no"?>
<!-- Created with Inkscape (http://www.inkscape.org/) -->

<svg
   width="210mm"
   height="100mm"
   viewBox="0 0 210 100"
   version="1.1"
   id="svg1"
   xml:space="preserve"
   inkscape:version="1.4.2 (ebf0e940d0, 2025-05-08)"
   sodipodi:docname="crisskat.svg"
   xmlns:inkscape="http://www.inkscape.org/namespaces/inkscape"
   xmlns:sodipodi="http://sodipodi.sourceforge.net/DTD/sodipodi-0.dtd"
   xmlns="http://www.w3.org/2000/svg"
   xmlns:svg="http://www.w3.org/2000/svg"><sodipodi:namedview
     id="namedview1"
     pagecolor="#505050"
     bordercolor="#eeeeee"
     borderopacity="1"
     inkscape:showpageshadow="0"
     inkscape:pageopacity="0"
     inkscape:pagecheckerboard="0"
     inkscape:deskcolor="#505050"
     inkscape:document-units="mm"
     inkscape:zoom="0.72604517"
     inkscape:cx="364.99106"
     inkscape:cy="244.47515"
     inkscape:window-width="1910"
     inkscape:window-height="1011"
     inkscape:window-x="0"
     inkscape:window-y="0"
     inkscape:window-maximized="1"
     inkscape:current-layer="layer1" /><defs
     id="defs1" /><g
     inkscape:label="Layer 1"
     inkscape:groupmode="layer"
     id="layer1"
     transform="translate(0,-58.671166)"><path
       d="m 16.26464,65.959281 c -7.469823,0 -13.4834144,6.013592 -13.4834144,13.483415 v 39.739174 h 27.3745564 49.345825 49.497753 49.19441 29.02511 V 79.442696 c 0,-7.469823 -6.0136,-13.483415 -13.48342,-13.483415 z"
       style="fill:#041c28;stroke-width:0.280258"
       id="path41" /><path
       id="path1"
       style="fill:#e3546c;fill-opacity:1;stroke-width:0.0644205"
       d="m 28.280609,74.953185 v 1.610754 1.610239 h 4.79919 4.799189 v -1.610239 -1.610754 h -4.799189 z m 9.598379,3.220993 v 1.610754 1.610238 h 1.610755 1.610754 v -1.610238 -1.610754 h -1.610754 z m -9.598379,0 h -1.610755 -1.610238 v 1.610754 1.610238 h 1.610238 1.610755 v -1.610238 z m -3.220993,3.220992 h -1.610754 -1.610238 v 6.409944 6.409944 h 1.610238 1.610754 v -6.409944 z m 0,12.819888 v 1.610238 1.610754 h 1.610238 1.610755 v -1.610754 -1.610238 h -1.610755 z m 3.220993,3.220992 v 1.578198 1.578202 h 4.79919 4.799189 V 99.014248 97.43605 h -4.799189 z m 9.598379,0 h 1.610755 1.610754 v -1.610754 -1.610238 h -1.610754 -1.610755 v 1.610238 z m 6.442501,-16.04088 v 9.598895 9.598385 h 1.610239 1.610754 v -6.409949 -6.409428 h 1.578197 1.5782 v -1.610754 -1.610236 h -1.5782 -1.578197 V 82.973367 81.39517 h -1.610754 z m 6.37739,3.156913 h 3.220992 3.220993 V 82.973367 81.39517 h -3.220993 -3.220992 v 1.578197 z m 6.441985,0 v 1.610236 1.610754 h 1.610754 1.610236 v -1.610754 -1.610236 h -1.610236 z" /><path
       id="path11"
       style="fill:#f5ae62;fill-opacity:1;stroke-width:0.0644205"
       d="m 69.83188,78.689603 v 1.610754 1.610238 h 1.610238 1.610755 v -1.610238 -1.610754 h -1.610755 z m -3.220992,9.662977 v 1.578197 1.578716 h 1.610238 1.610754 v 8.020182 8.020185 h 1.610238 1.610755 V 97.951475 88.35258 H 69.83188 Z" /><path
       id="path13"
       style="fill:#a2e05a;fill-opacity:1;stroke-width:0.0644205"
       d="m 84.713161,81.39517 v 1.578197 1.578716 h 6.409428 6.409945 V 82.973367 81.39517 h -6.409945 z m 0,3.156913 h -1.610754 -1.610755 v 1.610236 1.610754 h 1.610755 1.610754 v -1.610754 z m 0,3.22099 v 1.610238 1.610754 h 3.188435 3.188954 v -1.610754 -1.610238 h -3.188954 z m 6.377389,3.220992 v 1.610239 1.610754 h 1.610755 1.610238 v -1.610754 -1.610239 h -1.610238 z m 3.220993,3.220993 v 1.610238 1.610754 h 1.610754 1.610237 v -1.610754 -1.610238 h -1.610237 z m 0,3.220992 h -6.409947 -6.409944 v 1.578198 1.578202 h 6.409944 6.409947 V 99.014248 Z M 107.13143,81.39517 v 1.578197 1.578716 h 6.40942 6.40995 V 82.973367 81.39517 h -6.40995 z m 0,3.156913 h -1.61076 -1.61024 v 1.610236 1.610754 h 1.61024 1.61076 v -1.610754 z m 0,3.22099 v 1.610238 1.610754 h 3.22099 3.22099 v -1.610754 -1.610238 h -3.22099 z m 6.44198,3.220992 v 1.610239 1.610754 h 1.61024 1.61075 v -1.610754 -1.610239 h -1.61075 z m 3.22099,3.220993 v 1.610238 1.610754 h 1.5782 1.5782 v -1.610754 -1.610238 h -1.5782 z m 0,3.220992 h -6.44198 -6.44199 v 1.578198 1.578202 h 6.44199 6.44198 v -1.578202 z" /><path
       id="path25"
       style="fill:#65dbf0;fill-opacity:1;stroke-width:0.0644205"
       d="m 126.39278,74.953185 v 12.819888 12.819377 h 1.61076 1.61024 v -4.799195 -4.79919 h 3.18895 3.18895 v -3.220992 -3.22099 h -1.5782 -1.57871 v 1.610236 1.610754 h -1.61024 -1.61075 v -6.409944 -6.409944 h -1.61024 z m 9.5989,9.598898 h 1.61024 1.61075 V 82.973367 81.39517 h -1.61075 -1.61024 v 1.578197 z m 3.22099,-3.156913 h 1.61024 1.61075 v -1.610238 -1.610754 h -1.61075 -1.61024 v 1.610754 z m 3.22099,-3.220992 h 1.61024 1.61076 v -1.610239 -1.610754 h -1.61076 -1.61024 v 1.610754 z m -6.44198,12.819887 v 1.610239 1.610754 h 1.61024 1.61075 v -1.610754 -1.610239 h -1.61075 z m 3.22099,3.220993 v 1.610238 1.610754 h 1.61024 1.61075 v -1.610754 -1.610238 h -1.61075 z m 3.22099,3.220992 v 1.578198 1.578202 h 1.61024 1.61076 V 99.014248 97.43605 h -1.61076 z" /><path
       id="path32"
       style="fill:#a868e8;fill-opacity:1;stroke-width:0.0644205"
       d="M 174.51491,74.953185 V 86.19436 97.43605 h 1.61076 1.61023 v -6.441985 -6.441982 h 4.79971 4.79919 V 82.973367 81.39517 h -4.79919 -4.79971 v -3.220992 -3.220993 h -1.61023 z m 3.22099,22.482865 v 1.578198 1.578202 h 4.79971 4.79919 V 99.014248 97.43605 h -4.79919 z M 152.03205,81.39517 v 1.578197 1.578716 h 4.83174 4.83175 V 82.973367 81.39517 h -4.83175 z m 9.66349,3.156913 v 1.610236 1.610754 h -4.83175 -4.83174 v 1.610238 1.610754 h 4.83174 4.83175 v 3.220993 3.220992 h -4.83175 -4.83174 v 1.578198 1.578202 h 6.4425 6.44198 v -8.020185 -8.020182 h -1.61075 z m -9.66349,12.883967 v -3.220992 -3.220993 h -1.5782 -1.5782 v 3.220993 3.220992 h 1.5782 z" /><path
       d="m 30.337991,150.13967 v -30.9578 H 2.7812256 v 17.47439 c 0,7.46982 6.0536186,13.48341 13.5731614,13.48341 z"
       style="fill:#e3546c;fill-opacity:1;stroke-width:0.236955"
       id="path59" /><path
       d="m 79.501607,150.13967 v -30.9578 H 30.307194 v 30.9578 z"
       style="fill:#f5ae62;fill-opacity:1;stroke-width:0.23617"
       id="path55" /><path
       d="m 178.19377,150.13967 v -30.9578 h -49.35546 v 30.9578 z"
       style="fill:#65dbf0;fill-opacity:1;stroke-width:0.236556"
       id="path47" /><path
       d="m 207.21888,119.18187 h -29.03474 v 30.9578 h 15.47611 c 7.51149,0 13.55863,-6.01359 13.55863,-13.48341 z"
       style="fill:#a868e8;fill-opacity:1;stroke-width:0.236828"
       id="path43" /><path
       d="m 128.84795,150.13967 v -30.9578 H 79.47081 v 30.9578 z"
       style="fill:#a2e05a;fill-opacity:1;stroke-width:0.236607"
       id="path51" /></g></svg>
